<?xml version="1.0" encoding="utf-8"?>
<!-- Generator: Adobe Illustrator 23.0.2, SVG Export Plug-In . SVG Version: 6.00 Build 0)  -->
<svg version="1.1" id="Layer_1" xmlns="http://www.w3.org/2000/svg" xmlns:xlink="http://www.w3.org/1999/xlink" x="0px" y="0px"
	 viewBox="0 0 2400 1270" style="enable-background:new 0 0 2400 1270;" xml:space="preserve">
<style type="text/css">
	.st0{fill-rule:evenodd;clip-rule:evenodd;fill:#0060FF;}
	.st1{fill:#FFFFFF;}
</style>
<rect class="st0" width="2400" height="1270"/>
<g>
	<polygon class="st1" points="462.16,638.35 462.17,638.35 462.16,638.35 	"/>
	<path class="st1" d="M866.8,683.73c-3.49-1.57-19.68-13-19.68-13s-3.18,1.89-4.76-5.1s0.31-205.65,0.31-205.65s0.62-4.44-8.57-2.22
		c-8.88,2.22-78.7,24.75-78.7,24.75h0c0,0-2.85,0.64-0.62,4.14c0,0,10.16,3.49,13.33,12.06c3.16,8.57,1.27,171.06,1.27,171.06
		l-11.43,11.43c0,0-4.12,2.53,2.22,6.99c5.07,3.16,69.18,31.41,69.18,31.41l39.35-30.48C868.7,689.12,870.61,685.32,866.8,683.73z"
		/>
	<path class="st1" d="M1012.68,814.41c1.8-0.37,3.6-0.55,3.6-0.55S993.64,815.2,1012.68,814.41z"/>
	<path class="st1" d="M1096.27,553.94c-6.34-4.76-61.24-35.55-61.24-35.55s-3.81-2.53-8.57,1.6c-4.77,4.45-38.09,27.61-38.09,27.61
		s-3.81,3.49-0.31,5.71c3.18,2.2,22.85,14.59,22.85,14.59s3.16,0,3.8,3.8c0.65,3.5-0.95,109.49-0.95,109.49s0.95,6.99-6.99,9.52
		c0,0-20.95,11.74-43.16-10.16l0.64-112.67c0,0-1.61-4.45,3.8-5.4c5.4-1.27,7.61-4.44,7.61-4.44s3.18-3.18-2.85-7.94
		c-5.71-4.76-52.99-28.88-52.99-28.88l0,0c0,0-6.03-6.65-10.76,0.03l-40.31,26.67c0,0-4.12,1.58-1.58,5.4
		c2.85,3.8,20.31,10.79,20.31,10.79s3.18,0.95,4.45,4.12l1.58,124.73c0,0-25.39,15.86-26.34,56.16c0,0-5.4,31.1,36.5,47.29
		c0,0,40.93,19.99,94.89-4.12c0,0,24.11-18.08,46.33-14.92c0,0,16.19,3.16,5.71,21.91c0,0-3.18,13.96-32.06,14.89
		c-2.27,0.1-4.19,0.18-5.82,0.25c-3.49,0.71-6.98,2.11,2.65,4.21c0,0,5.71,4.76,26.33,0.64c0,0,46.02-12.68,45.07-50.15
		c0,0,0.95-17.13-12.06-30.45c0,0-7.94-9.52-28.25-13.98c0,0-17.77-3.8-40.3,0.96c0,0-35.86,12.06-59.03,19.99
		c0,0-27.29,7.63-46.02-4.44c0,0-15.24-6.65-14.28-20.31c0,0,2.23-19.05,31.74-29.21c0,0,23.16-8.56,43.16,3.83
		c0,0,23.48,21.58,73.94,20.95c0,0,41.89-3.83,46.02-30.48l0.64-104.1c0,0-1.58-2.85,1.6-6.03l15.55-15.55
		C1099.45,560.28,1102.61,558.7,1096.27,553.94z"/>
	<polygon class="st1" points="1245.08,711.33 1245.08,711.33 1245.08,711.33 	"/>
	<path class="st1" d="M1214.29,714.49c0,0,1.58,0,2.85,0.66l-0.31-2.23h-9.2c0,0,1.27,0.64,1.58,1.28v9.83c0,0-0.64,0.64-1.27,0.64
		c0,0-0.31,0,0,0.32h1.91l6.98,0.3v-2.53c0,0-0.95,0.96-2.22,0.96h-2.22v-3.83h1.27l1.58,0.32l0.31-2.87l-2.22,0.64h-0.96v-3.5
		H1214.29z"/>
	<path class="st1" d="M1230.17,713.56v6.33c0,0,0.31,2.87-1.91,3.19c0,0-1.91,0.3-2.22-2.23v-6.36c0.13-0.55,0.34-1.08,0.64-1.57
		l-4.76-0.32h0c0.51,0.33,0.94,0.76,1.27,1.27v6.36c0,0,0,4.44,4.76,4.76c0,0,4.44-0.34,4.76-4.46v-6.67c0,0,0-0.64,0.31-0.93h-3.49
		L1230.17,713.56z"/>
	<path class="st1" d="M1182.26,710.69l0.64,1.6v9.2l-0.96,0.96c1.9,0.81,3.99,1.03,6.02,0.64c0,0,8.26-1.91,3.5-9.86
		C1191.45,713.22,1189.24,710.39,1182.26,710.69z M1189.87,718.63c0,0-0.64,2.85-4.12,2.56l0.31-8.9c0,0,1.91,0,3.18,2.54
		C1189.24,714.83,1190.51,717.06,1189.87,718.63z"/>
	<polygon class="st1" points="1207.64,712.92 1207.64,712.92 1207.64,712.92 	"/>
	<path class="st1" d="M1201.61,714.82c0,0-0.32-1.89,0.95-2.53l-4.76-0.32v0c0,0,0.96,0.96,0.96,2.22v9.2c0,0,0,0.64-1.27,1.6
		l5.08,0.3l-1.27-1.89L1201.61,714.82z"/>
	<path class="st1" d="M1251.43,712.6c0,0,1.27,0,2.22,0.32l-0.95-2.23l-7.61,0.64c0,0,1.27,0.33,1.28,0.97l0.31,10.16l-0.64,0.64
		l7.3-0.96v-2.23c0,0-0.96,0.96-1.6,0.96h-2.22v-3.5h1.89c0,0,0.64,0,1.27,0.64l-0.31-2.84c0,0-0.65,0.31-0.96,0.64h-1.89v-3.19
		H1251.43z"/>
	<path class="st1" d="M1450.11,665.96c0.64,2.2,3.16-1.27,3.16-1.27c2.87-5.1,3.8-12.09,3.8-12.09c-0.64-5.36-1.57-0.62-1.57-0.62v0
		C1454.23,658.64,1450.11,665.96,1450.11,665.96z"/>
	<path class="st1" d="M597.98,659.6v-80.93c0,0-0.31-3.8,2.22-4.44l11.43-9.2c0,0,1.91-3.18-1.89-7.3
		c-3.5-4.44-72.99-38.71-72.99-38.71s-2.54-3.8-8.9,0.64c0,0-75.85,30.47-105.68,69.49c0.01,0-23.79,15.23-19.51,75.21
		c-0.16-0.64,4.92,47.92,67.12,55.86l41.26-33.31c0,0,2.22-3.83,5.4-0.66l69.82,33.97l42.53-33.31c0,0,1.91-3.83-1.27-7.63
		L597.98,659.6z M520.24,674.19c0,0-4.76,7.95-16.5,2.56c0,0-29.86-14.78-41.41-38.07c-0.04,0.06-12.42-22.65-5.88-47.31
		c0,0,0.96-23.16,27.92-34.9l36.5,23.8L520.24,674.19z"/>
	<path class="st1" d="M1444.08,664.36c-1.27,2.23,1.57,0.96,1.57,0.96c5.1-4.46,6.03-15.25,6.03-15.25
		c-0.64-3.49-1.57,0.34-1.57,0.34C1449.79,657.07,1444.08,664.36,1444.08,664.36z"/>
	<path class="st1" d="M1327.27,596.44c1.6-0.31,2.87-0.95,2.87-1.89c0-0.64-1.6-0.95-3.16-0.64c-1.89,0-3.16,0.95-3.16,1.58
		S1325.38,596.76,1327.27,596.44z"/>
	<polygon class="st1" points="1349.19,593.91 1344.73,590.1 1340.63,593.91 1344.73,596.76 	"/>
	<path class="st1" d="M746.51,682.79c0,0-18.73-10.79-21.89-12.39c-3.16-1.6-1.89-4.76-1.89-4.76s-2.54-81.58-0.64-88.56
		c1.58-6.67,3.8-4.45,3.8-4.45s5.71-1.58,10.79-4.76c4.76-3.18,0.32-6.03,0.32-6.03s-59.35-31.09-63.79-34.9
		c-4.46-3.81-7.63,0-7.63,0h0c0,0-41.26,25.39-44.43,30.15c-3.18,4.76-0.62,6.99-0.62,6.99s17.77,11.1,22.53,13.01
		c5.07,1.58,3.16,4.12,3.16,4.12l1.27,82.51c0.64,2.23,0,7.92,0,7.92s-6.99,5.72-10.79,8.9c-4.44,3.8-0.96,7.63-0.96,7.63
		l63.8,32.05c0,0,43.15-31.1,46.96-32.68C750.31,685.96,746.51,682.79,746.51,682.79z"/>
	<path class="st1" d="M1445.01,647.54L1445.01,647.54c-1.57,9.83-6.33,16.19-6.33,16.19c-0.96,2.53,1.89,0.64,1.89,0.64
		c4.12-5.72,5.4-16.19,5.4-16.19C1445.65,645.31,1445.01,647.54,1445.01,647.54z"/>
	<path class="st1" d="M1246.99,668.49c0,0-4.12-1.89-7.3-5.72c0,0-1.6-1.27-6.03-6.67l-0.95-0.31c0,0-0.32,0.95,0.95,3.5
		C1233.66,659.29,1238.74,668.49,1246.99,668.49z"/>
	<path class="st1" d="M1361.55,596.13c1.89,0.31,3.19,0,3.19-0.96c0.3-0.64-1.3-1.27-2.87-1.58c-1.89-0.32-3.16,0-3.16,0.95
		C1358.39,595.17,1359.98,595.82,1361.55,596.13z"/>
	<path class="st1" d="M1255.89,665c0,0,1.58,0,2.22-0.64c0,0-1.6-0.96-2.54-1.89c0,0-8.56-7.3-11.43-13.02v0
		c0,0-1.91-0.31-0.31,2.85C1243.83,652.3,1248.59,660.87,1255.89,665z"/>
	<path class="st1" d="M1249.84,666.26c0,0,0.64,0.96,2.54,0.64c0,0,0.62-1.57-1.6-2.2c0,0-9.52-6.36-11.74-12.71
		c0,0-2.22-1.57-0.62,1.92C1238.43,653.9,1241.28,663.39,1249.84,666.26z"/>
	<path class="st1" d="M1252.7,597.11c0,0,0.95-2.87,2.54,0.64c0,0-0.32,1.89,1.58,4.44c0,0,1.44,0.29,2.96,0.01
		c0.13,1.06,0.27,3.09-0.41,3.79c0,0-3.49,2.85-6.98-3.18c0,0,0.31,7.3,11.1,13.64c0,0,2.85-2.54,2.85-7.94c0,0,2.54-1.27,0.96-4.12
		c0,0,1.58-1.27,0-5.71c0,0,0,3.81-3.49,5.71c0,0-2.43,0.3-3.42-2.35c1.11-0.27,2.03-1.05,2.46-2.1c0,0,1.91-0.32-0.31-4.12
		c0,0-0.62-1.91,1.6-3.5c2.4-0.98,3.84-3.46,3.49-6.03c0,0-1.58,2.22-3.8,1.91c0,0-3.5-0.32-3.5,4.76c0,0,0.64,1.27,1.27,3.49
		c0,0,1.91,1.58,0.64,3.18c-0.97,0.97-3.4,1.41-4.76,1.27c0,0-0.96-1.58-0.96-3.8c0,0-0.64-5.08-5.4-3.18c0,0-1.58,1.91-6.03,0.64
		l0,0C1245.08,594.55,1246.99,600.56,1252.7,597.11z M1260.65,605.34c0,0,1.27,0.95,4.12,0.64c0,0,0.62,3.16-1.27,7.29
		c0,0-3.5-1.27-6.03-4.76C1257.47,608.5,1259.69,608.83,1260.65,605.34z"/>
	<path class="st1" d="M462.34,638.68c0,0-0.05-0.11-0.17-0.33C462.22,638.46,462.28,638.57,462.34,638.68z"/>
	<path class="st1" d="M1488.81,723.1l-2.87-4.46c0,0,3.49-3.16,0.32-6.67c0,0-3.16-0.95-5.72,0.32l-1.89,0.3l0.96,0.65l0.3,11.12
		l-0.3,0.93h3.16l-0.3-0.93v-4.76h1.57c0,0,0.64,2.54,3.5,4.44c0,0,0.96,0.64,2.53,0C1489.8,723.57,1489.34,723.24,1488.81,723.1z
		 M1484.69,717.67c-0.64,0.95-2.2,0.65-2.2,0.65v-5.1c1.27-1.27,2.2,0.32,2.2,0.32C1486.28,716.07,1484.69,717.67,1484.69,717.67z"
		/>
	<path class="st1" d="M196.22,664.05c0,0,30.15-20.96,31.1-59.36v-91.07c0,0,2.22-7.94-9.52-2.54l-56.81,29.83
		c0,0-1.27,1.27-1.27,4.45v109.48c0,0,0,11.76-11.1,28.25c0,0-6.98,11.43,4.76,6.99C153.38,690.07,187.34,676.11,196.22,664.05z"/>
	<polygon class="st1" points="1478.66,712.6 1478.66,712.6 1478.66,712.6 	"/>
	<polygon class="st1" points="1508.16,711.03 1508.8,709.76 1504.36,710.06 1504.36,710.06 1505.32,711.02 1505.62,722.44 
		1505.32,723.08 1509.12,722.75 1508.49,722.12 	"/>
	<path class="st1" d="M1496.44,710.39L1496.44,710.39c0,0-5.08-0.64-6.02,6.67c0,0,0.3,6.65,5.69,7.29c0,0,5.72,0,6.36-6.35
		C1502.47,717.99,1502.47,710.07,1496.44,710.39z M1496.44,722.75c-1.6,0.32-2.23-1.89-2.23-1.89c-1.89-6.03,0.64-7.92,0.64-7.92
		c0.34-0.65,1.6-0.65,1.6-0.65c3.16,0.3,2.87,5.07,2.87,5.07C1499.6,721.82,1496.44,722.75,1496.44,722.75z"/>
	<path class="st1" d="M1441.52,712.29c-4.76-2.53-6.96,0-6.96,0h0c-5.4,5.07,0,10.79,0,10.79c3.16,2.84,7.29,0,7.29,0
		C1446.61,716.41,1441.52,712.29,1441.52,712.29z M1439.62,721.49c0,0-1.89,2.23-3.16-0.64c0,0-3.8-5.71,1.6-8.26v0
		c0,0,1.57-0.64,2.2,2.23C1440.25,714.83,1442.17,718.97,1439.62,721.49z"/>
	<path class="st1" d="M1470.73,712.6h-4.44l0.93,0.97l0.32,10.79l-1.27,0.93l3.48,0.32c0,0,6.69,0.3,6.69-6.67
		C1476.45,718.95,1475.49,712.6,1470.73,712.6z M1470.1,724.35v-10.16c0,0,2.23,0,3.16,3.8
		C1473.26,717.99,1474.22,722.75,1470.1,724.35z"/>
	<polygon class="st1" points="1429.8,711.01 1430.1,710.06 1426.93,709.76 1423.13,715.15 1421.24,708.16 1417.74,707.53 
		1417.74,709.08 1417.41,718.3 1417.12,718.94 1419.64,720.21 1419.64,714.18 1422.51,720.85 1426.64,715.45 1426.64,720.85 
		1426,721.81 1430.44,722.44 1429.8,721.17 	"/>
	<path class="st1" d="M359.34,451.41H199.09l-60.62,44.43c0,0-6.67,2.22-0.64,6.34h0l127.12,1.66l-0.31,157.6
		c-3.67-0.23-7.44-0.34-11.3-0.26c0,0-59.66-1.6-90.76,52.99c0,0-5.4,6.03,2.54,5.4c0,0,89.8-13.32,142.17,1.6
		c0,0,26.98-47.62,83.15-58.42l0.64-163.74C391.08,499.01,393.93,454.58,359.34,451.41z M270.3,503.91l37.63,0.49
		c0,0,11.41-2.22,9.2,6.03l0.29,49.3h0c-2.18,2.66-25.91,30.03-47.2-5.25L270.3,503.91z M270.17,564
		c18.99,24.76,38.79,11.39,47.29,3.44l0.17,29.53c-7.81-7.54-26.61-20.75-47.52,0.47L270.17,564z M270,661.9l0.1-56.39
		c24.88-30.47,47.08-1.15,47.15-1.08l0.43-0.32l0.42,70.41C318.1,674.52,297.75,664.69,270,661.9z"/>
	<polygon class="st1" points="1456.44,712.58 1452.31,712.29 1452.64,713.22 1452.96,717.68 1448.84,711.96 1446.28,711.96 
		1447.22,713.22 1446.89,722.44 1446.6,724.01 1449.76,724.33 1449.46,723.06 1449.46,718.6 1453.9,725.27 1456.13,725.27 
		1455.8,724.33 1455.8,713.54 	"/>
	<path class="st1" d="M2142.06,684.97c0,0-18.42-10.79-21.89-12.36c-3.19-1.6-1.92-4.76-1.92-4.76s-2.53-81.57-0.64-88.54
		c1.6-6.34,3.83-4.44,3.83-4.44s5.69-1.6,10.79-4.76c4.76-3.18,0.3-5.71,0.3-5.71s-59.35-31.1-63.79-34.91
		c-4.12-3.81-7.61-0.01-7.61-0.01h0c0,0-41.24,25.07-44.43,30.15c-3.16,4.76-0.64,6.98-0.64,6.98s17.78,11.1,22.54,12.7
		c5.07,1.6,3.16,4.44,3.16,4.44l1.27,82.51c0.64,2.23,0,7.92,0,7.92s-6.99,5.4-10.79,8.59c-4.44,3.8-0.93,7.6-0.93,7.6l63.79,32.37
		c0,0,43.16-31.1,46.96-33.01C2145.86,688.16,2142.06,684.97,2142.06,684.97z"/>
	<polygon class="st1" points="1519.59,710.06 1519.29,707.53 1518.66,707.82 1512.94,709.1 1511.99,709.1 1512.29,712.29 
		1513.25,711.33 1514.84,711.03 1514.84,721.18 1514.52,722.12 1517.68,721.48 1517.38,720.52 1517.38,710.06 	"/>
	<path class="st1" d="M1993.59,659.6v-80.93c0,0-0.3-3.8,2.23-4.44l11.43-9.2c0,0,1.89-3.18-1.89-7.3
		c-3.5-4.44-73.01-38.71-73.01-38.71s-2.53-3.8-8.9,0.64c0,0-75.85,30.47-105.68,69.49c-0.01,0-23.8,15.23-19.52,75.21l0,0
		c-0.16-0.64,4.92,47.92,67.13,55.86l41.24-33.31c0,0,2.23-3.83,5.4-0.66l69.82,33.97l42.53-33.31c0,0,1.89-3.83-1.27-7.63
		L1993.59,659.6z M1915.84,674.19c0,0-4.76,7.95-16.51,2.56c0,0-29.87-14.79-41.41-38.1c0.28,0.67-12.49-22.29-5.85-47.28
		c0,0,0.93-23.16,27.91-34.9l36.5,23.8L1915.84,674.19z"/>
	<path class="st1" d="M2262.32,686.26c-3.5-1.57-19.69-13-19.69-13s-3.16,1.57-4.76-5.4c-1.57-6.99,0.32-207.88,0.32-207.88
		s0.31-4.44-8.56-2.22c-9.22,2.22-78.7,24.75-78.7,24.75s-2.85,0.31-0.64,4.15c0,0,10.16,3.16,13.32,11.74
		c3.16,8.57,1.27,173.91,1.27,173.91l-11.43,11.12c0,0-4.12,2.84,2.23,6.96c5.07,3.49,69.18,31.74,69.18,31.74l39.34-30.48
		C2264.22,691.65,2266.12,687.85,2262.32,686.26z"/>
	<path class="st1" d="M1857.91,638.65c-0.02-0.04-0.06-0.12-0.15-0.3C1857.81,638.45,1857.86,638.55,1857.91,638.65z"/>
	<path class="st1" d="M1566.24,640.24c-0.96-4.12-2.53-6.67-3.5-7.63l-0.3-0.3c0-10.8-10.79-15.56-10.79-15.56
		c-1.89-1.6-4.12-1.6-4.12-1.6c-2.53-0.62-6.03-4.76-6.03-4.76c-4.12,7.61-0.64,13.32-0.64,13.32c-6.36-1.27-38.11,5.08-38.11,5.08
		c-7.6,1.91-20.28-2.22-20.28-2.22c-7.95-4.45-6.67-10.16-6.67-10.16c1.57-9.21,9.2-7.94,9.2-7.94h2.23
		c6.67-1.27,11.43,1.27,11.43,1.27c13.32,6.34,37.11,0,37.11,0c11.43-4.45,14.62-19.36,14.62-19.36
		c-7.63,6.99-14.92,5.72-14.92,5.72c-1.61,0.32-3.2,0.75-4.76,1.27c1.27-5.4,7.6-7.94,7.6-7.94c-8.24-3.49-17.12,2.54-17.12,2.54
		c-4.44,4.76-14.29,6.34-14.29,6.34c7.29-2.85,11.12-10.79,11.12-10.79c-4.76,2.85-13.32,2.22-13.32,2.22
		c-13.02-2.54-27.3,9.2-27.3,9.2c-13.02,12.06-6.67,25.39-6.67,25.39c1.6,3.8,5.4,6.67,9.52,8.25c6.03,2.87,12.36,3.5,12.36,3.5
		c13.66,1.58,41.59-1.6,41.59-1.6c2.53-0.64,5.4-0.64,5.4-0.64c-5.1,3.81-6.03,12.39-6.03,12.39c5.07-1.89,8.87-1.89,8.87-1.89
		l-0.3,1.27c6.03-0.96,11.09,0,11.09,0c3.19,0.3,3.83-2.53,3.83-2.53c3.8,5.69-3.83,12.06-3.83,12.06
		c-4.44,4.44-14.27,0.93-14.27,0.93c-5.4-2.53-19.38-3.5-19.38-3.5c-2.53-3.16-31.41-8.87-31.41-8.87c-1.6-2.87-4.44-1.6-4.44-1.6
		l-2.56-0.32c-2.53-6.03-8.24-2.53-8.24-2.53c-4.12-0.64-10.79-4.44-14.62-6.67c-1.89-0.95-2.84-1.89-2.84-1.89
		c15.23-16.82,14.27-34.9,14.27-34.9c-1.89-26.03-23.15-30.15-23.15-30.15c-3.16-7.61-13.32-8.25-13.32-8.25l-0.64,1.6l0.93,2.22
		c-0.3,1.6,1.6,4.45,1.6,4.45l-4.12,0.95l-25.71-14.92c-6.33-1.58-3.8,3.8-3.8,3.8l1.27,1.91l22.22,17.46
		c-2.23,4.44-9.83,10.16-9.83,10.16l-2.87,0.64l-3.5,3.8l0.32,5.08c-1.6,1.27-5.1,1.27-5.1,1.27l-0.3,3.18
		c2.2,3.18,8.56,3.18,8.56,3.18l5.07,5.07c1.6,0.96,2.87-0.31,2.87-0.31l4.44-5.07l6.03-2.85c1.6,0.95,4.46,1.27,4.46,1.27
		c-4.12,1.6-8.56,7.61-8.56,7.61c-3.5-0.96-9.22,0.31-9.22,0.31l-0.64,3.49l-0.18,0.84l-1.39-0.84c-2.23-9.2-9.22-3.49-9.22-3.49
		c-2.33,2.51-2.57,6.31-0.57,9.09l0,0c0.26,0.32,0.51,0.62,0.77,0.89l-0.4,0.71c-0.21-0.14-0.46-0.22-0.71-0.23
		c-1.27,0-2.23,1.27-2.23,2.54l-0.3-0.31l-2.56-2.87l-0.93-0.95l-5.72-6.03c-6.67-8.88-16.82,0-16.82,0l-1.57-1.27
		c5.37-3.18,0.64-7.3,0.64-7.3l10.47-26.98l-2.87-3.49c5.1-10.48-5.69-10.79-5.69-10.79c-3.19-9.52-8.9-5.07-8.9-5.07
		c-1.89-9.21-8.9-4.45-8.9-4.45c-2.53-6.34-8.56-2.54-8.56-2.54l0.3-14.92l-6.96,0.31l-7.63-0.31l0.64,15.23
		c-7.6-3.8-8.9,3.81-8.9,3.81c-8.87-5.08-8.87,4.76-8.87,4.76c-7.31-2.23-6.99,4.76-6.99,4.76c-9.83,0.95-8.56,9.52-8.56,9.52
		l7.6,26.02c-1.89,4.76-24.42,32.37-24.42,32.37l-9.53-2.85l-0.64-1.58c2.22,1.27,3.81,0.64,3.81,0.64
		c-0.95-3.18,0.31-9.52,0.31-9.52c2.87-12.37-2.22-16.82-2.22-16.82c0.31-5.08-3.18-11.1-3.18-11.1c4.76-6.03-2.22-12.06-2.22-12.06
		l-0.96-1.6l-0.31-13.01c-1.27,0-1.91-1.6-1.91-1.6c-1.91-5.4-5.4-1.89-5.4-1.89c-2.54-5.71-6.67-1.27-6.67-1.27
		c-3.5-4.76-6.99,0-6.99,0l-2.85-9.21l-9.52,3.8l3.18,10.16c-6.99-1.6-4.76,5.4-4.76,5.4c-6.03,0.31-3.18,5.71-3.18,5.71
		c-5.71,0.64-3.49,6.99-3.49,6.99l6.34,10.47c-5.08,5.71-0.31,9.52-0.31,9.52c1.6,2.87,3.5,2.87,3.5,2.87
		c-2.87,8.57,0.95,17.46,0.95,17.46c-4.12,4.76-10.16,8.56-15.55,11.41c-7.92,3.81-14.92,5.72-14.92,5.72
		c-12.39,2.87-36.81,10.79-36.81,10.79c-8.57,2.2-22.22,6.33-22.22,6.33c-17.13,5.1-21.58-0.3-21.58-0.3
		c-4.12-2.56-0.95-9.22-0.95-9.22c4.12-8.25,12.7-10.16,12.7-10.16c6.03,3.83,8.25,6.03,8.25,6.03c3.8,3.83,10.48,3.5,10.48,3.5
		l0.31-1.27c2.85,0.32,4.76-0.64,4.76-0.64c-1.91-1.89-1.91-4.12-1.91-4.12c0-1.58-2.22-4.11-2.22-4.11l44.11-1.91
		c1.6-0.3,2.85-0.3,4.12-0.64c15.23-2.85,18.73-6.34,18.73-6.34c10.47-8.26,6.03-21.91,6.03-21.91
		c-5.72-13.32-16.82-13.97-16.82-13.97c-8.57-2.22-14.92-0.95-14.92-0.95c-4.76,0.32-14.59-2.22-14.59-2.22
		c-0.32,1.89,3.8,7.92,3.8,7.92c-2.87,0.26-5.73-0.65-7.92-2.53c-5.08-4.76-13.33-2.54-13.33-2.54c1.27,2.54,8.9,8.9,8.9,8.9
		c-4.45,0.31-16.5-4.76-16.5-4.76c2.22,10.48,14.28,17.77,14.28,17.77c14.28,6.03,26.65-0.31,26.65-0.31
		c6.03-3.8,12.06-6.03,12.06-6.03c3.47-1.58,7.56-0.06,9.14,3.41c0.15,0.34,0.28,0.68,0.38,1.04c-0.64,10.79-8.57,11.1-8.57,11.1
		c-22.85,4.76-53.32,1.58-53.32,1.58c2.22-2.85,2.54-10.16,2.54-10.16l-2.54,0.64c-13.32-1.27-16.82,1.6-16.82,1.6
		c-4.76,2.85-6.98,8.88-6.98,8.88c-6.03,2.54-10.79,5.71-14.29,8.88c-8.88,8.59-9.83,18.09-9.83,18.09
		c-0.64,11.43,5.71,13.02,5.71,13.02c-5.71,11.09,2.85,15.23,2.85,15.23c3.81-2.84,5.4-6.03,5.4-6.03
		c7.61-5.69,29.83-10.47,29.83-10.47c-4.45,3.5-6.99,13.96-6.99,13.96c-3.8,1.27-10.16-0.96-10.16-0.96
		c-3.49-0.3-3.49,2.56-3.49,2.56l-1.6,3.8l-2.22,6.99c-13.64-0.64-11.74,7.29-11.74,7.29l-1.91,21.26c3.18,7.92,8.25,6.67,8.25,6.67
		v-7.92h3.49c4.12,8.56,10.48,10.47,10.48,10.47h1.91c2.22-0.64,3.18,2.55,3.18,2.55l2.22,0.3l0.31-5.4l2.53-0.3
		c1.6,0.64,2.54,3.16,2.54,3.16h1.89c0.64-1.27,0.96-4.76,0.96-4.76c2.54-1.6,1.89-7.29,1.89-7.29c5.08-0.96,10.48,0.96,10.48,0.96
		l-0.31,4.73c3.8,6.36,8.57,7.31,8.57,7.31c3.18,0.93,7.92,1.57,13.64,1.89c9.84,0.64,22.22,0.3,33.64,0
		c12.4-0.62,24.78-1.58,37.13-2.87c1.27,1.89,1.89,1.6,1.89,1.6c5.4,1.89,11.43-3.83,11.43-3.83l-1.89,3.83
		c4.12-0.32,8.57-3.19,8.57-3.19c1.1,1.51,2.65,2.63,4.44,3.19l0.96-0.96l1.27,1.89c2.53-1.27,4.12-5.69,4.12-5.69
		c2.87,2.53,6.99,1.89,6.99,1.89l1.27,1.89l0.93-1.6c1.89,1.3,5.4,2.87,5.4,2.87c3.83-4.76,2.23-11.72,2.23-11.72l0.96,1.57
		l0.93-3.8c1.89,1.89,5.1,1.89,5.1,1.89c-6.03,2.53-2.56,6.99-2.56,6.99c0.75,1.25,1.86,2.24,3.19,2.84
		c2.08-0.26,4.02,1.13,4.44,3.19c4.76,2.23,7.63-2.87,7.63-2.87l0.64-3.8c-0.96-2.23-0.96-5.72-0.96-5.72l0.96,4.12l1.57,0.96
		l10.79,8.56l9.22-7.63c5.07,3.5,12.06,3.5,12.06,3.5c2.53,0,0.64-3.16,0.64-3.16c8.26,6.67,20.62,5.07,20.62,5.07
		c1.89-1.57,0.64-2.53,0.64-2.53c2.23-0.96,6.03,2.23,6.03,2.23c3.16,2.2,7.92,0.3,7.92,0.3c-0.3-1.57-1.89-1.89-1.89-1.89
		c2.23,0,0.96-3.16,0.96-3.16c2.2,0.3,4.12,2.84,4.12,2.84c1.89,2.56,5.4,1.92,5.4,1.92l0.3-1.6c2.23,1.6,7.29,1.89,7.29,1.89
		c1.3-1.27,0.32-3.16,0.32-3.16c22.85,6.99,56.79,5.69,56.79,5.69c44.12-0.3,50.15-8.87,50.15-8.87c1.6-1.92,0.64-4.12,0.64-4.12
		v-2.53c2.23-1.3,5.72-0.32,5.72-0.32l-3.19,6.67l-0.93,2.23c7.6,8.56,19.03-0.96,19.03-0.96v-2.87c2.23-0.93,4.12-3.48,4.12-3.48
		l5.1,1.27c0.64,2.87-1.27,6.03-1.27,6.03c7.92,2.2,10.76-6.03,10.76-6.03l-4.1-21.28c-6.36-7.29-17.78-6.03-17.78-6.03l-0.32-5.4
		c-0.64-1.89-2.84-3.16-4.76-3.48l-2.45-0.88l-2.31,0.88c-3.5,0.3-8.59,0.3-8.59,0.3v-0.3l0.64-7.31v-8.24l-0.64-2.87l6.69,0.96
		c5.07,2.2,16.82,2.2,16.82,2.2c3.8,1.6,3.8,5.4,3.8,5.4l-1.27,4.46c10.79-0.96,9.52-13.02,9.52-13.02
		C1568.15,657.37,1566.24,640.24,1566.24,640.24z M1485.32,646.93l3.19,4.44c0,0-5.4,4.12,2.53,7.63l0.3,1.89
		c0,0-10.79-0.93-19.35,2.87c0,0-7.29,4.76-16.48,4.76c0,0-13.02,0.93-20.65-3.5c0,0,3.83-8.56,3.19-13.32c0,0,0.31-0.97-0.32-3.5
		c0,0-0.96-0.93-0.96,1.27c0,0-2.84,13.64-6.96,16.51c-0.66,0.7-1.1,1.58-1.27,2.53c0,0-14.62-2.53-18.72-3.8
		c0,0-10.49-3.5-16.82-3.5c0,0-3.83-2.23-11.12,4.12c0,0-2.2,2.19-3.8,11.09c0,0,6.03,8.56-0.96,13.02c0,0,0.96-3.19,0.96-3.83
		c0,0-0.32-1.91-1.89-2.2c0,0-0.34,1.27,0.3,3.5c0,0,0.32,3.8-0.64,4.44c0,0-6.67,0.93-8.9-2.23l0,0c0,0,0.32-5.07,4.46-13.92
		l4.12-14.29c0,0,1.57-5.07,5.4-8.26c3.01-1.92,6.68-2.49,10.13-1.57c0,0,20.95,0.93,24.45,2.53c0,0-3.16-8.26,4.76-19.99
		c0,0,1.6-2.54-0.64-1.6c0,0-7.29,6.36-6.99,18.42l-5.69-0.64c0,0-1.6-17.46,8.26-27.94c0,0,12.05-2.22,34.9,10.48
		C1450.11,632.34,1476.76,646.3,1485.32,646.93z M1493.91,674.19h0.3v4.94c-3.41,1.09-6.92,1.89-10.47,2.39
		c-5.4,1.27-1.6,4.44-1.6,4.44c2.87,2.53,3.5,4.76,3.5,4.76c2.53,2.87-1.6,5.07-1.6,5.07c-8.56,1.6-18.09,10.16-18.09,10.16
		c-6.67,0.64-16.48-0.3-16.48-0.3c-2.56-1.92-4.46-6.36-4.46-6.36c3.5-3.16,6.67,0.64,6.67,0.64c2.87,1.6,8.26,0.96,8.26,0.96
		c4.76-2.53,11.75-5.72,11.75-5.72c1.27-0.93,3.16-0.64,3.16-0.64c1.89-0.64-0.32-2.23-0.32-2.23c-3.2-2.24-6.08-4.91-8.56-7.92
		c-2.53-4.12,0-6.03,0-6.03c3.8-4.46,19.04-14.94,19.04-14.94h0c2.25-0.77,4.65-0.97,6.99-0.58l0.69,3.4
		c-1.44,0.75-2.33,2.26-2.28,3.88C1490.41,672.3,1491.98,674.19,1493.91,674.19z M1510.1,704.34c0,0-4.9,0.71-12.74,1.32
		c2.84-0.86,4.79-3.62,4.79-7.04c0.01-1.71-0.55-3.38-1.57-4.76c-1.07-1.42-2.69-2.33-4.46-2.5v-4.68c1.51-0.56,2.53-1.98,2.55-3.59
		c0-0.32-0.05-0.66-0.13-0.93v-0.03h4.23c1.93,3.8,6.37,10.13,14.29,11.09c0,0-6.65,2.23-10.16,5.1
		C1506.9,698.3,1502.47,702.74,1510.1,704.34z M1485.32,686.57c0,0-1.27-0.64-0.64-2.23c0,0,2.87,0,6.03-0.93l0.03-0.03
		c0.29,1.78,1.69,3.18,3.48,3.45v4.66c-2.89,0.66-5.07,3.55-5.07,7.15c0,3.75,2.36,6.72,5.4,7.22c0,0,0,0,0,0v0c0,0,0,0,0,0
		c-6.29,0.4-14.06,0.66-22.54,0.4c0,0,7.63-6.67,10.79-7.63c0,0,1.6,0,4.76-2.87C1487.55,695.76,1491.99,691.33,1485.32,686.57z
		 M1492.31,698.63c0-2.23,1.6-3.8,3.16-3.8c1.6,0,2.55,0.93,3.19,2.2c0,0.64,0.3,0.97,0.31,1.6c0,2.23-1.61,3.8-3.5,3.8
		C1493.91,702.43,1492.31,700.86,1492.31,698.63z M1500.25,672.62c-0.64,1.27,0,3.8,0,3.8c-1.41,0.86-2.89,1.58-4.44,2.15v-5.07
		c1.01-0.85,1.58-2.11,1.57-3.42c0-2.13-1.44-3.98-3.24-4.12l-0.18-2.56c2.06,0.82,3.82,2.26,5.02,4.12
		C1500.87,671.65,1500.25,672.62,1500.25,672.62z M1435.82,704.36l-1.6-1.93h0v0l0,0l9.22-2.53l3.8,5.73l-8.26-0.64l4.46-3.19
		L1435.82,704.36z M1434.22,704.4c-4.12,1.27-6.33-0.32-6.33-0.32c-0.32-5.4,2.53-10.79,2.53-10.79
		c-1.27-8.56-19.05-6.99-19.05-6.99l-4.42-4.15l-0.96-0.96l-10.16-9.52c0,2.87-1.27,6.99-2.84,10.49c-1.27,2.84-2.87,5.4-2.87,5.4
		l-3.8-1.92c0.72-1.06,1.25-2.23,1.57-3.48c3.16-7.63,5.4-18.42,5.4-18.42c1.89,0,3.5,0.32,4.76,0.64c0.96,0.64,1.6,0.96,1.6,0.96
		c0.74,0.35,1.54,0.69,2.41,1.04l3.5,4.97c-0.33,0.59-0.51,1.25-0.51,1.92c-0.01,1.89,0.93,3.16,2.53,3.16v0
		c0.57,0,1.13-0.18,1.6-0.51l6.33,2.74c0,1.89,1.27,3.5,2.87,3.5c0.99,0,1.85-0.64,2.36-1.54l5.37,0.79
		c0.35,1.6,1.44,2.66,2.74,2.66c1.47,0,2.94-1.35,3.14-3.29l4.49-2.13c0.53,0.79,1.32,1.3,2.23,1.3c1.57,0,3.16-1.6,3.16-3.5
		l2.87-4.73c5.39,0.42,10.81,0.31,16.19-0.32c8.56-4.46,15.55-6.99,15.55-6.99c-2.56,1.89-5.1,3.5-6.69,5.4
		c-1.59,1.58-3.08,3.28-4.44,5.07c-2.33,1.69-3.65,4.44-3.5,7.31c0.24,1.81,0.89,3.54,1.89,5.07c1.6,1.89,3.83,2.87,3.83,2.87
		l3.5,3.16c-2.87,2.23-9.22,3.8-9.22,3.8c-3.5,1.3-8.24-0.93-8.24-0.93c-11.12-2.53-14.92,2.53-14.92,2.53
		c-2.23,2.53-6.36,2.87-6.36,2.87L1434.22,704.4z M1425.03,703.4c0,0-8.25-0.34-11.72-3.8c0,0-2.23-0.32,0.61-1.92
		c0,0,1.93-1.27,6.69-0.64c0,0,2.83,0.96,7.29-0.64L1425.03,703.4L1425.03,703.4z M1412.02,706.57c0.96,3.81,0.32,7.29,0.32,7.29
		c-4.12-1.27-4.76-3.16-4.76-3.16c0-1.26,0.64-1.89,1.6-2.53v0C1410.44,707.2,1412,706.57,1412.02,706.57z M1418.05,688.47
		c0,0,0.96-1.26,7.95,1.27c0,0,6.65,4.14-1.3,6.03c0,0-0.93-4.44-4.42-4.77C1420.28,691,1420.6,689.43,1418.05,688.47z
		 M1397.66,703.6c0.18-1.03,0.2-2.08,0.08-3.11l2.2-0.27l-0.3-0.96l-1.57,0.58c0.51-1.89-0.3-4.92-0.53-5.72
		c1.88,2.14,3.27,5.12,3.37,9.43v0C1400.41,703.32,1399.32,703.06,1397.66,703.6z M1400.81,704.82c-0.27,1.7-1.44,3.13-3.06,3.72
		l0.05-3.98C1398.81,704.37,1399.85,704.46,1400.81,704.82z M1392.02,688.18C1392.02,688.18,1392.02,688.18,1392.02,688.18
		L1392.02,688.18L1392.02,688.18c3.5-5.1,5.07-13.35,5.07-13.35l1.3,1.6l-1.89,6.03l1.27,1.27l2.2-5.07l1.6,1.89l-2.53,4.12
		l1.89,1.57l2.53-3.48l1.6,1.27l-3.5,3.5l1.57,2.2l2.87-4.44l2.23,1.6l-3.8,3.8l1.57,1.27l3.83-3.16l1.27,0.93l-9.22,7.63
		C1398.69,690.38,1392.02,688.18,1392.02,688.18z M1388.53,674.19h0.96l-0.96,1.26l-2.2,5.1l-2.23-1.27l0.93-0.32l1.6-3.16
		l-3.16-1.6l-0.64,3.83l-1.26-2.23l0.64-4.14v-0.62L1388.53,674.19z M1385.69,665.63c0,0,0.64,1.26,1.92,1.28
		c0,0,1.89,0.96,1.89-2.84l0.93,0.3c0,0,0.32,1.27-0.64,3.16c0,0-1.91,3.49-5.07-0.64C1384.73,666.9,1384.09,665.96,1385.69,665.63z
		 M1388.13,691.79l3.63-0.71c0.67,1.2,0.99,2.56,0.93,3.93c-0.58-0.25-2.13-0.7-4.51,0.21
		C1388.61,694.13,1388.36,693.01,1388.13,691.79z M1387.97,690.69l-4.66-0.32c0.84-0.73,1.9-1.17,3.01-1.24
		c1.54,0.09,3.07,0.38,4.54,0.86L1387.97,690.69z M1382.69,691.08l4.57,0.56c0.06,1.53-0.12,3.06-0.53,4.54
		c-0.9-0.09-1.8,0-2.66,0.27c0.32-1.14,0.75-3.09,0.32-4.18l-0.93,0.66c0,0,0.56,1.14-0.45,3.96c-0.15,0.07-0.29,0.15-0.43,0.23
		c-0.17-0.71-0.3-1.48-0.38-2.28C1382.2,694.84,1381.67,692.75,1382.69,691.08z M1387.34,697.32c0.18,1.6,0.51,5.88-0.96,6.99
		c-1.37-1.44-2.61-3.31-3.4-5.75C1384.21,697.6,1385.78,697.15,1387.34,697.32z M1387.62,703.58c0.79-0.25,2.68-0.86,4.49-0.86
		c0.18,1.75-0.06,3.52-0.71,5.16c-1.27-0.58-2.81-1.5-4.31-2.87C1387.21,704.74,1387.44,704.26,1387.62,703.58z M1387.92,702.27
		c0.26-1.34,0.35-3.11,0.08-5.27c1.51-0.68,3.22-0.79,4.81-0.32c0.34,1.58,0.22,3.22-0.32,4.73
		C1390.91,701.24,1389.32,701.54,1387.92,702.27z M1392.71,690.68c1.48,0.64,2.84,1.52,4.03,2.61v0c-1.13,0.15-2.2,0.6-3.1,1.3
		C1393.74,692.48,1392.97,691.05,1392.71,690.68z M1392.43,708.32l0.43-1.09c0.86-0.49,2.63-1.37,3.64-1.32l0.23,2.89
		c-0.79,0.13-1.7,0.16-2.81,0C1393.93,708.8,1393.34,708.67,1392.43,708.32L1392.43,708.32z M1396.7,704.34
		c-0.38,0-1.87,0.05-3.51,1.83c0.41-1.42,0.44-2.92,0.1-4.36c1.24-0.44,2.55-0.68,3.86-0.69
		C1397.21,701.65,1397.15,703.7,1396.7,704.34z M1397.14,699.93c-0.58-0.18-1.67-0.25-3.42,0.56c0.54-1.39,0.61-2.93,0.18-4.36
		c0.69-0.67,1.62-1.05,2.58-1.06C1397.15,696.59,1397.38,698.27,1397.14,699.93z M1435.92,677.31l-4.05,1.89
		c-0.43-1.49-1.72-2.79-3.03-2.79c-1.57,0-2.84,1.89-2.84,3.8l-4.84-0.83c0.05-0.24,0.08-0.49,0.08-0.74c0-1.89-1.3-3.83-2.87-3.83
		c-1.19,0-2.18,1.06-2.61,2.39l-5.6-2.53c0.19-0.45,0.28-0.93,0.27-1.41c0-1.6-1.27-3.16-2.87-3.16c-0.25-0.01-0.5,0.03-0.74,0.13
		l-1.49-2.67c-0.01,0-0.02-0.01-0.03-0.01h0.03l0.01,0.01c8.07,2.63,18.07,4.45,18.07,4.45h6.99l2.23-3.5
		c2.88,1.61,6.6,2.53,10.38,2.98l0,0l0,0c0,0,0,0,0,0l-1.85,2.63c-0.52-0.89-1.45-1.45-2.48-1.49c-1.6,0-2.87,1.57-2.87,3.8
		C1435.82,676.72,1435.84,677.03,1435.92,677.31z M1366.65,704.98c1.16,0.28,2.24,0.82,3.16,1.57c0,0,1.27,2.54-1.6,3.5
		c0,0-6.98-1.89-12.7-5.69v-4.76C1355.52,699.6,1360.62,704.36,1366.65,704.98z M1360.28,698.01l5.1-7.63l1.57,1.6l-5.71,8.26
		L1360.28,698.01z M1362.84,700.54l5.37-7.6c0,0,2.87,1.57,7.63,0.31C1375.83,693.25,1371.07,705.93,1362.84,700.54z
		 M1372.03,651.04h-26.34V610.1h27.29L1372.03,651.04z M1376.17,629.14l6.65-5.08l0.64-1.27l1.57,3.5h-0.93l-6.03,4.76l0.93,2.54
		l1.61,1.58l-2.23,0.95l-3.48-6.98h0l0,0v0H1376.17z M1392.67,628.16c1.26,1.58,2.85,3.18,4.12,4.77c0.84,1.04,1.65,2.05,2.44,2.98
		l-0.58,2.74c-0.08-0.03-0.18-0.03-0.26-0.03c-1.6,0-2.87,1.6-2.87,3.83c0,1.7,1.02,3.15,2.39,3.42l0.43,2.44l-1.25-0.16l-4.73-0.32
		c0.31-5.07-0.96-10.47-2.56-15.23c-2.2-6.65-5.07-12.05-5.07-12.05c0.96-0.95,2.53,0.96,4.76,3.49v0
		C1390.42,625.32,1391.72,626.59,1392.67,628.16z M1391.06,646.58h-3.16l-2.2-1.57l-2.56,0.93l-1.57,0.96l-0.96-3.8l0.96,0.31
		l3.8-0.95l2.85-3.83l0.64-1.57l1.27,3.8l-2.87,3.16L1391.06,646.58z M1379.66,649.77l-2.56,4.44c0,0-0.64-10.79-3.48-15.86v-7.63v0
		C1373.63,630.72,1379.33,638.64,1379.66,649.77z M1400.33,639.5l0.38-1.72l3.37,4.05c-0.96,4.76,0.64,7.32,0.64,7.32l-5.1-0.66
		l-0.25-2.72c1.31-0.56,2.17-1.84,2.18-3.27C1401.57,641.36,1401.13,640.29,1400.33,639.5z M1458.02,622.78l-1.89-1.27l-1.6-1.91
		c0,0,3.8-6.34,4.46-9.83v0C1458.99,609.77,1463.43,615.8,1458.02,622.78z M1462.47,614.21c0,0-1.27-5.07-2.84-7.61
		c0,0,0.93-4.44,0.64-6.98c0,0,4.11,2.23,5.07,5.71C1465.34,605.32,1463.74,612.94,1462.47,614.21z M1465.97,603.11
		c-1.6-4.12-4.44-5.4-4.44-5.4c-3.19-3.16-3.19-10.47-3.19-10.47C1469.46,591.37,1465.97,603.11,1465.97,603.11z M1465.66,589.79
		c0,0-6.36-3.81-8.59-6.36c0,0-0.95-4.12-2.84-6.67C1454.23,576.76,1464.07,579.31,1465.66,589.79z M1459.94,577.4l-6.33-2.53
		c-2.57-2.87-7.96-6.67-7.96-6.67C1454.23,565.99,1459.94,577.4,1459.94,577.4z M1430.1,568.2c-0.3,2.54-2.53,5.07-2.53,5.07
		c0.62-2.53-1.57-7.61-1.57-7.61L1430.1,568.2z M1405.99,557.41c0,0-2.2-0.95-2.2-3.8c0,0,0.3-1.91,3.8,0.31c0,0,3.16,2.54,3.8,8.25
		L1405.99,557.41z M1412.98,562.17c0,0-0.32-3.16-1.6-5.71l4.12,2.85c0,0,0.96,1.27,2.23,3.49c0,0,0.3,0.31,0.93,3.8l0,0
		L1412.98,562.17z M1420.59,567.25c0,0,0.3-2.53-1.6-5.71h0.01v-0.64l4.12,3.18c0,0,2.53,3.16,2.53,8.25L1420.59,567.25z
		 M1411.07,600.58c0,0-5.72,0-5.72-3.18c0,0,1.6,0.64,3.83-0.64v0l1.89,1.92c0,0,2.23-0.32,4.12-1.6v1.27
		C1415.2,598.36,1413.3,600.58,1411.07,600.58z M1436.75,601.21c10.49,0.32,8.9-12.37,8.9-12.37c-2.2-4.45-1.57,2.22-1.57,2.22
		c-4.46,14.59-15.89,1.6-15.89,1.6c-1.27-0.96,0,2.22,0,2.22c0.64,1.58,1.27,1.27,1.27,1.27l0.96,0.95l-7.92,3.18
		c-1.27,1.91-3.5,5.08-3.5,5.08h-0.96v-0.01l-3.8-3.49c0,0,3.16-2.54,2.53-5.71c0,0,2.23-0.31-2.2-0.31l-1.6,0.95
		c0,0-1.6-0.64-1.89-1.6l-0.64-3.8l2.87-3.49l2.53,0.31c1.85-2.53,6.67-6.85,10.76-10.35l1.3,1.47c-1.6,3.49,0.3,4.44,0.3,4.44
		c2.53,1.6,3.5-1.58,3.5-1.58c2.53,1.27,1.6-0.31,1.6-0.31c-2.56-0.57-5.4-3.94-5.93-4.63c3.27-2.78,5.93-4.89,5.93-4.89
		c1.57-3.49,4.12-5.08,4.12-5.08c-1.6-1.89-2.87-6.98-2.87-6.98c7.92,0,9.2,8.25,9.2,8.25c24.45,19.36,9.22,49.83,9.22,49.83
		c-7.31-6.03-23.81-9.84-23.81-9.84C1431.38,604.08,1436.75,601.21,1436.75,601.21z M1416.78,616.44c6.03-1.6,1.6-6.03,1.6-6.03
		c2.23-0.95,2.87-0.31,2.87-0.31c2.84-1.6,3.8,1.89,3.8,1.89c2.23-1.89,3.8-0.64,3.8-0.64c-4.76,4.45,0.96,6.03,0.96,6.03
		c2.87,0,3.5-2.85,3.5-2.85c-1.27-1.28-1.6-2.22-1.6-2.22c0.94,0.36,1.8,0.9,2.53,1.58c-0.3-1.91,1.6-1.91,1.6-1.91
		c0.93,1.6,0.64,2.85,0.64,2.85c0.96-0.95,2.87,0,2.87,0c-2.87,3.18,0.93,6.03,0.93,6.03c4.46,2.53,3.83-4.76,3.83-4.76
		c3.16,0,2.84,2.85,2.84,2.85l1.92-1.58c0.64,1.91,0.64,3.18,0.64,3.18c1.27-1.6,3.16-0.31,3.16-0.31c-5.1,3.16-1.6,6.03-1.6,6.03
		c1.6,1.27,2.87,0.31,2.87,0.31l-0.3-2.22l4.1,0.64l-4.1,4.76c-21.61-12.39-37.48-11.12-37.48-11.12h0L1416.78,616.44z
		 M1409.48,609.77c4.44-0.64,3.5,5.07,3.5,5.07c-1.19,1.49-2.15,2.05-2.94,2.11c-1.73,0.14-2.48-2.06-2.5-2.09
		C1405.83,611.34,1409.48,609.77,1409.48,609.77z M1406.93,621.2c0-0.37-0.08-0.73-0.23-1.06l0.43-1.06
		c0.99,0.81,2.24,1.24,3.51,1.23c3.27-0.1,4.54-4.82,4.54-4.82h0.79l-0.79,3.8c-3.19,1.91-6.03,8.25-6.03,8.25l-3.61-3.59
		C1406.31,623.59,1406.93,622.5,1406.93,621.2z M1403.55,626.44l3.7,3.97c0,0-2.54,5.07-2.84,9.51l-3.31-3.97l0.3-1.35
		c1.14-0.53,2.05-1.8,2.05-3.24c0-1.04-0.48-1.98-1.17-2.63L1403.55,626.44z M1382.5,610.73c0,0,4.46-4.45,10.79,4.76l9.25,9.87h0
		l-1.19,2.75c-0.32-0.16-0.71-0.23-1.06-0.23c-1.6,0-2.87,1.58-2.87,3.49v0.16l-9.83-11.89c0,0-0.32-1.91-4.12-1.27
		c0,0-1.89-3.81-5.4-6.03L1382.5,610.73z M1377.1,613.9l1.6,2.85l-5.07,10.8l0.31-4.45l3.16-7.3l-3.16,2.22v-2.53L1377.1,613.9z
		 M1374.9,606.28c-2.87,0.95-4.12,0.31-4.12,0.31c-23.49-4.76-54.91,0.96-54.91,0.96c-4.76,0.31-3.8-1.91-3.8-1.91
		c0.96-3.49,2.85-2.85,2.85-2.85v0c30.45-6.03,57.75,0,57.75,0C1376.47,603.43,1374.9,606.28,1374.9,606.28z M1344.73,713.57
		c0.64,0,1.3,0.93,1.3,1.89s-0.66,1.89-1.3,1.89c-0.93,0-1.57-0.93-1.57-1.89S1343.8,713.57,1344.73,713.57z M1342.2,713.22
		c-0.95,0-1.57-0.93-1.57-2.2c0-0.96,0.64-1.92,1.57-1.92c0.96,0,1.6,0.96,1.6,1.92C1343.8,712.29,1343.16,713.22,1342.2,713.22z
		 M1345.69,711.66c0-1.27,0.64-2.23,1.6-2.23c0.64,0,1.27,0.96,1.27,2.23c0,0.93-0.64,1.89-1.27,1.89
		C1346.33,713.56,1345.69,712.6,1345.69,711.66z M1344.42,708.46c-0.62,0-1.27-0.62-1.27-1.89c0-1.27,0.64-2.2,1.27-2.2
		c0.93,0,1.6,0.95,1.6,2.2S1345.35,708.46,1344.42,708.46z M1344.1,610.1v40.61h-27.61l-1.26-40.93L1344.1,610.1z M1312.68,664.99
		c-1.1,0.18-2.05,0.89-2.53,1.89c-3.5-22.84,4.43-33.63,4.44-33.63v0h0l0,0l0.32,6.35C1309.82,650.39,1312.68,664.99,1312.68,664.99
		z M1307.29,660.86v2.54h-5.4l-3.8-2.54l5.71-6.65l-4.77,0.32l-0.93,0.31v-3.5l0,0l0.93,0.64h7.3l0.96-0.31v2.87l-5.69,6.33H1307.29
		z M1307.29,648.18l-0.96-1.27l-7.3-0.96l-0.62,0.64l0.32-3.16v-0.95l1.27,0.95l6.65,0.96h1.27L1307.29,648.18z M1307.62,636.44
		l1.27-0.95c1.27-0.96,0.93-2.53,0.93-2.53c-0.64-2.87-2.2,0-2.2,0c-3.83,3.8-5.72-0.32-5.72-0.32c-1.61-2.88,2.52-6.36,2.52-6.36v0
		l2.23,1.58l-1.6,0.64c-2.53,2.22-0.93,3.49-0.93,3.49c1.57,0.96,1.89-0.95,1.89-0.95c2.53-3.49,4.44-1.6,4.44-1.6
		c3.19,2.22,0.96,5.72,0.96,5.72l-0.96,1.27l-0.3,0.95L1307.62,636.44z M1310.14,621.2c0.93,4.44,4.12,3.8,4.12,3.8v1.91
		c-4.46,0.64-6.03-3.5-6.03-3.5c-1.58-7.28,5.41-7.6,5.41-7.6v2.54C1309.82,617.39,1310.14,621.2,1310.14,621.2z M1380.59,568.84
		l-4.76-4.45C1375.83,564.39,1382.2,559,1380.59,568.84z M1373.3,562.49l-5.72-3.18C1374.24,552.65,1373.3,562.49,1373.3,562.49z
		 M1365.04,557.1l-5.69-2.54C1359.35,554.56,1365.04,547.26,1365.04,557.1z M1377.44,571.06c0,0-9.22-8.57-28.88-7.94v-5.71
		C1348.56,557.41,1365.68,556.77,1377.44,571.06z M1341.57,554.87c-4.44-0.95-1.6-4.45-1.6-4.45h8.59c1.27,1.91-1.27,4.76-1.27,4.76
		C1344.42,556.14,1341.57,554.87,1341.57,554.87z M1346.96,557.09v6.36h-5.4v-6.36H1346.96z M1353.95,549.79c0,0,2.53,0,3.16,4.45
		l-6.36-0.32C1350.76,553.91,1351.09,549.15,1353.95,549.79z M1340.3,536.14h8.26l-2.53,3.81l1.57,1.6l1.89-2.56l0.32,7.94
		l-4.12-3.16l1.91,4.76l-7.3-0.32l3.16-3.81l-0.93-0.95l-3.19,2.85l-0.31-7.61l3.18,2.87l0.96-0.96L1340.3,536.14z M1336.49,553.93
		l-6.36,2.54C1331.41,544.41,1336.49,553.93,1336.49,553.93z M1327.6,557.1l-5.72,3.8C1321.58,551.71,1327.6,557.1,1327.6,557.1z
		 M1339.96,557.09v6.34c-9.49-1.26-25.68,6.36-25.68,6.36C1321.6,563.41,1330.44,559.03,1339.96,557.09z M1318.71,562.81l-5.4,4.12
		C1312.68,557.74,1318.71,562.81,1318.71,562.81z M1311.09,568.52l-4.76,5.4C1304.43,565.03,1311.09,568.52,1311.09,568.52z
		 M1308.88,583.43l2.84-7.61l3.19,12.37l-2.87-1.27c2.23,9.83,10.16,4.76,10.16,4.76c3.5-3.8,0.3-5.07,0.3-5.07
		c-4.1-2.23-4.76,0.31-4.76,0.31c-2.84-10.79,4.46-6.67,4.46-6.67c-0.32-6.99,2.53-7.61,2.53-7.61c3.8,1.27,3.8,7.3,3.8,7.3
		c4.12-6.67,6.69,0.31,6.69,0.31c0.3,0.96-0.32,2.85-0.32,2.85c-5.07-1.89-5.69,3.5-5.69,3.5c-0.66,3.49,5.69,4.44,5.69,4.44
		c7.63-2.22,7.63-10.48,7.63-10.48c-2.23,0.32-6.03,3.8-6.03,3.8v-14.28c1.89,3.49,6.67,5.4,6.67,5.4
		c-0.96-6.34-4.46-9.83-4.46-9.83l13.35-0.31c-4.46,4.12-4.12,10.16-4.12,10.16c3.8-0.62,5.69-4.44,5.69-4.44l0.32,12.37
		c-2.87-4.44-5.72-2.53-5.72-2.53c-1.27,9.51,6.99,9.83,6.99,9.83c5.69,0,6.03-4.76,6.03-4.76c-1.27-5.71-5.1-2.54-5.1-2.54
		c-1.57-9.52,5.4-5.4,5.4-5.4c-2.53-6.34,1.89-8.57,1.89-8.57c5.42,3.18,2.87,8.57,2.87,8.57c7.32-3.8,6.03,5.4,6.03,5.4
		c-6.96-3.18-6.03,4.12-6.03,4.12c3.19,7.61,9.52,1.89,9.52,1.89c1.27-1.89,1.6-3.8,1.6-3.8l-2.87,0.64l2.87-9.83l2.53,5.08
		l1.89-5.4l1.6,1.89l-9.22,23.16c-27.89-6.34-59.93-0.64-59.93-0.64h0L1308.88,583.43z M1278.42,638.35c0,0,0.64-4.46,0-6.99
		c0,0,5.72,2.23,8.55,1.88l1.27,0.64c0,0,8.26-9.2,10.79-11.74c0,0,7.95-12.06,9.22-16.19l2.84-4.44l0.64-1.27c0,0,0.96,0,1.6,0.64
		c0,0,0,2.23-1.27,0.96c-1.63,1.17-2.57,3.07-2.53,5.07c0,0,0.31,2.54,2.84,3.18v1.58c0,0-10.47,7.94-14.59,26.98
		c0,0-6.33,6.36-7.6,10.16l-10.8-0.3l-4.44-4.46C1274.93,644.04,1277.46,640.24,1278.42,638.35z M1295.87,659.6l-5.07-3.8v0
		l-4.76-3.5l5.4-0.64c0,0,0.93-4.76,4.76-7.29C1296.2,644.38,1295.24,653.91,1295.87,659.6z M1241.92,556.47h2.54l-2.23-2.54l0,0
		l4.45-2.22v3.18l1.58-1.58l1.89,4.44l-2.53,0.32l1.6,1.58c3.49,2.54,1.27,4.76,1.27,4.76l-1.6,1.27c-5.08,1.89-3.49-6.03-3.49-6.03
		l-1.6,1.58L1241.92,556.47z M1233.32,579.9c2.23-9.2,10.79-14.28,10.79-14.28l1.27,1.27l-1.6,1.91l0.64,2.22l-3.8,3.18l-3.18-1.6
		c-1.36,2.41-2.68,4.76-2.22,7.3l2.22,4.76c4.45,1.91,2.87-3.49,2.87-3.49c-1.27-1.6-2.87,1.89-2.87,1.89
		c-2.85-5.4,0.96-5.08,0.96-5.08c-1.57-1.53-0.93-4.07-0.93-4.07v0c3.81,0.31,4.12,3.18,4.12,3.18c0.31-5.4,4.44-0.64,4.44-0.64
		c-1.34,0.42-2.54,1.18-3.49,2.22c0,3.18,4.76,3.18,4.76,3.18c4.12-2.23,3.49-4.76,3.49-4.76c0.64-3.5-3.49-1.6-3.49-1.6l-1.6-3.49
		l2.54-0.31v-1.27l-2.22-1.27l6.99-3.49l-0.96,2.85l0.64,0.64l1.58-1.91l1.27,5.08c-3.18-0.64-1.91,2.22-1.91,2.22
		c1.8,1.95,3.24,2.13,4.29,1.71c0.89-0.43,1.61-1.15,2.05-2.04c1.91-2.22-0.31-3.18-0.31-3.18c-2.53,0.95-2.85,1.91-2.85,1.91
		c-1.27-6.67,2.22-5.41,2.22-5.41c-0.95-3.16,0-4.76,0-4.76c2.54,1.27,2.85,3.8,2.85,3.8c3.8-4.12,4.44,0.31,4.44,0.31
		c-5.07,0.96-2.85,3.81-2.85,3.81c1.19,1.88,2.13,2.18,2.87,1.71c1.61-1.05,2.2-5.88,2.2-5.88c-2.85-4.12-10.16-4.86-10.16-4.45
		l-0.31,2.58l-3.81,0.64l-0.64-1.91l-0.95-0.31v-1.6c9.2-3.49,17.46,4.12,17.46,4.12l0.31,12.7c-13.64,1.91-30.47,13.01-30.47,13.01
		L1233.32,579.9z M1238.75,594.22c0,0,0.31,0.32,2.22-0.95c0,0,16.19-11.74,29.51-13.01v0c0,0,5.71,2.53,2.57,8.26
		c0,0,0.31,2.85,2.22,6.98l0.86,3.32c-0.1,2.22-0.34,5.11-0.86,7.16c0,0-0.32,2.54,0.31,5.4c-1.96-0.37-3.62-1.67-4.45-3.49
		c0,0,2.22,6.98-1.58,12.7c0,0-1.91,2.2-2.22,7.29c0,0-2.22-2.22-4.76-3.49c0,0-6.03-1.28-10.48-8.57c0,0-0.31,2.22-2.22,3.16
		c0,0,0-4.42-2.22-5.71c0,0-0.95-1.27-3.81-6.67c0,0,0,3.81,2.22,7.61c0,0,2.85,3.81,3.8,6.99c0,0,1.27,0.62,2.54-1.6
		c1.1,2.01,2.37,3.92,3.8,5.71c0,0,8.88,2.54,11.74,6.34c0,0,0.32-2.54,2.54-6.03c0,0,3.81-7.61,2.85-13.32c0,0,1.6,0.64,3.18,0.95
		c0,0-0.7-6.24,0.67-10.23l0.61,2.3c0,0,2.23,3.81,1.27,9.52c0,0-1.91,4.77,0,10.48c0,0-2.85-0.64-4.12-2.85
		c0,0,2.22,6.03-0.64,12.05c0,0-1.27,3.49-1.91,7.29c0,0-3.81-2.2-4.76-6.33c0,0,0.31,3.16-0.64,6.33c-1.07-1.94-2.92-3.32-5.08-3.8
		c0,0-8.25-2.23-10.79-13.01c0,0-0.64,3.49-2.85,5.08c0,0-0.64-8.88-3.49-12.39c-2.56-4.64-3.45-10.01-2.54-15.23
		C1242.24,602.47,1235.58,599.93,1238.75,594.22z M1134.34,690.07c-4.12,10.79-1.91,24.75-1.91,24.75h-2.54v-17.46
		c-7.3-1.6-4.12-4.44-4.12-4.44C1128.62,689.11,1134.34,690.07,1134.34,690.07L1134.34,690.07z M1149.56,728.15
		c-0.64-2.53-3.18-2.23-3.18-2.23c-1.26-3.8,1.91-3.8,1.91-3.8C1149.89,724.65,1149.56,728.15,1149.56,728.15z M1150.81,722.09
		c0.31-9.2-8.25-8.56-8.25-8.56c7.29,2.87,5.71,7.29,5.71,7.29c-1.89-0.32-3.8,2.87-3.8,2.87c-10.79-6.67-9.2-19.35-9.2-19.35
		c1.27-21.91,6.03-26.04,6.03-26.04c1.6-0.64,2.22,0.32,2.22,0.32c4.76,2.23,11.1,0.3,11.1,0.3c2.54-0.64,3.18-5.69,3.18-5.69
		c1.6-8.9,7.61-15.89,7.61-15.89c-4.12,1.92-27.29,7.95-27.29,7.95c-10.79,2.53-13.64,11.72-13.64,11.72
		c-6.98-8.56,4.12-13.32,4.12-13.32c-4.75-1.23-7.6-3.76-8.55-6.95h0c-2.85-6.67,1.58-15.23,1.58-15.23
		c8.25-13.01,19.68-16.19,19.68-16.19c6.03-9.2,15.24-9.2,15.24-9.2c-1.27,2.54-3.5,4.76-3.5,4.76c5.71-1.27,10.79-6.03,10.79-6.03
		c0,7.3-6.67,10.16-6.67,10.16c24.44,3.18,57.75-0.64,57.75-0.64c13.66-2.22,13.01-14.92,13.01-14.92
		c-2.85-11.43-17.13-4.76-17.13-4.76c-30.15,17.46-44.75-5.71-44.75-5.71c7.3,2.85,21.58,2.85,21.58,2.85
		c-5.4-2.22-12.37-10.16-12.37-10.16c4.45,0.64,6.67,2.54,6.67,2.54c7.61,4.12,16.19,3.18,16.19,3.18
		c-2.54-2.85-6.67-7.61-6.67-7.61c5.08,2.22,10.16,2.22,10.16,2.22c3.18,0.31,5.71,0.64,5.71,0.64c5.4,0.95,8.25,0,8.25,0
		c16.19,1.58,18.09,16.5,18.09,16.5c1.58,19.04-20.31,20.62-20.31,20.62c-8.9,2.56-58.08,1.91-58.08,1.91
		c5.08,2.22,6.36,6.98,6.36,6.98c0.95,2.23,2.22,3.83,2.22,3.83c-5.08,0.3-10.16-6.36-10.16-6.36c1.6,3.16,5.72,7.92,5.72,7.92
		c-2.85,1.27-8.88-6.03-8.88-6.03c-9.52-7.92-17.77,0.32-17.77,0.32c-8.9,6.96-7.3,13-7.3,13c-0.06,2.03,0.74,4,2.22,5.4
		c3.18,3.83,8.88,3.19,8.88,3.19c6.03,0,12.06-1.6,17.13-3.19c3.4-0.93,6.7-2.2,9.84-3.8c0.96,0,1.92,0.11,2.85,0.32
		c2.85-1.92,6.99-1.6,6.99-1.6c13.96-1.27,53.94-15.89,53.94-15.89c5.41-2.53,15.24-12.68,15.24-12.68
		c3.49,2.22,5.71,10.48,5.71,10.48c1.02-0.7,1.8-1.7,2.22-2.87c1.91,6.98,11.43,10.79,11.43,10.79c2.85,0.3,5.08,3.16,5.08,3.16
		l0.95-2.87c1.27,1.92,10.79,8.59,20.63,14.92c6.68,4.58,13.46,9.03,20.31,13.35c8.56-9.52,14.59-3.83,14.59-3.83
		c-1.27,1.27-2.87,0.96-2.87,0.96c-4.44-0.32-7.29,2.2-7.29,2.2c10.49-1.57,12.39,1.92,12.39,1.92c2.2,5.07-5.1,7.6-5.1,7.6
		c0-6.96-6.67-6.67-6.67-6.67c2.77,1.41,4.58,4.19,4.76,7.29c-2.23,6.03-7.63,1.3-7.63,1.3c-1.89-0.96-4.76-3.5-4.76-3.5
		c-15.52-0.96-30.45-11.75-30.45-11.75l-7.94,3.5c-4.32-3.26-7.8-7.51-10.16-12.39c-0.95-1.57-1.58-2.84-1.58-2.84v2.84
		c0.96,4.46,3.8,8.26,3.8,8.26c-13.64,15.55-38.08,1.6-38.08,1.6c-2.85-0.96-11.75-5.72-11.75-5.72
		c-25.38-0.3-37.13,22.54-37.13,22.54l-1.91,3.16c-1.89,14.29-6.34,14.29-6.34,14.29c2.22-5.4-3.16-7.92-3.16-7.92
		c-3.81,0.64-12.7,0.3-12.7,0.3c-5.71,10.16-0.96,17.46-0.96,17.46c11.1-0.3,6.34,8.56,6.34,8.56
		C1153.35,722.09,1150.81,722.09,1150.81,722.09z M1306.02,692.27l4.76,5.1c0,0,0.93,3.16-0.96,5.07c0,0-0.93-0.93-2.2-1.57
		c-0.79-0.4-1.67-0.62-2.55-0.64l-0.3-4.12c0-0.01,0.64-0.65,0.93-1.61v0C1305.69,693.87,1306.02,693.23,1306.02,692.27z
		 M1306.03,686.58l4.12-3.18l1.89,1.27l-3.16,2.87c0,0-0.64,0.3-0.96,1.57L1306.03,686.58z M1309.52,692.27c0,0,0.93-0.64,1.57-0.93
		l2.55-2.87l1.27,2.23l-2.55,2.53c0,0-0.64,0.96-0.64,2.23L1309.52,692.27z M1315.85,684.67c1.27,3.16,3.83,5.07,3.83,5.07v-0.3
		c0.93,2.2,3.8,4.44,3.8,4.44c0.32,2.23-1.89,2.23-1.89,2.23c-4.14-3.5-6.67-8.57-6.67-8.57v0
		C1314.59,684.98,1315.85,684.67,1315.85,684.67z M1319.67,687.85c0,0-0.14-0.14-0.12-0.19l-2.11-3.31
		c0.96-0.93,2.23-2.84,2.23-2.84c1.89,2.84,0.93,6.67,0.93,6.67c-0.82-0.5-1.03-0.56-1.05-0.51L1319.67,687.85z M1324.11,693.23
		c0,0,2.87,0.97,2.87,3.8c0,0-1.6,4.45-6.03,4.12c0,0-2.85,0-0.96-3.8C1319.98,697.36,1325.38,698.63,1324.11,693.23z
		 M1323.46,692.6c-1.88-0.96-2.22-3.16-2.22-3.16c1.6-1.89,1.27-3.5,1.27-3.5c0.96,1.6,1.6,1.6,1.6,1.6l0.96-0.64l1.89,2.84
		C1324.73,690.06,1323.46,692.6,1323.46,692.6z M1323.81,684.35c-0.39-1.48-1.04-2.88-1.93-4.12l2.87-2.2
		C1326.02,681.18,1323.81,684.35,1323.81,684.35z M1296.83,684.98L1296.83,684.98l2.2-3.8l1.6,0.32c0.64,4.44,3.5,7.6,3.5,7.6
		l-0.32,6.36c-0.93-2.23-3.16-2.23-3.16-2.23C1302.23,687.54,1296.83,684.98,1296.83,684.98z M1264.77,681.81
		c2.53,2.23,3.8,3.8,3.8,3.8c1.43,1.44,5.73,4.18,6.54,4.68c-1.12,3.42-1.19,7.1-0.19,10.56c0,0-7.61,0.31-10.16-4.76
		c0,0,0.64-1.6,2.54-2.23c0,0-6.99-2.87-8.88-6.03c0,0-0.31-0.64,0-0.93c0,0,0.95-1.92,4.44,0.64l0.64-1.6c0,0-4.76-3.8-5.72-9.52
		c0,0,5.72-0.64,8.57,1.6c0,0-1.27-1.6-1.27-4.12c0,0,6.03,0.3,8.9,5.69c0,0-0.64-3.16,0-4.76c0,0,5.71,1.92,7.61,4.76
		c0,0-0.64-1.57,0-2.84c0,0,3.83,2.2,4.12,6.03l-1.89,3.48h0c0,0-4.49-0.83-7.65,2.22c-4.11-2.13-9.81-6.96-9.81-6.96
		c-2.53-1.92-6.03-3.19-6.03-3.19L1264.77,681.81z M1277.46,712.92c0.31,0.59,0.93,0.95,1.6,0.93l-4.12,4.46l-0.32-4.76l0.32-3.8
		C1274.93,709.76,1275.87,711.65,1277.46,712.92z M1262.54,702.75v-2.53l-0.95-0.96v-3.16l-0.31-2.23c2.85,2.23,2.85,4.76,2.85,4.76
		c0.31,1.27,2.53,3.16,2.53,3.16l-2.22,0.64v0L1262.54,702.75z M1247.64,700.22c1.27,0.93,2.53,3.16,2.53,3.16
		c-1.27,0.31-4.12,0.31-4.12,0.31v0C1245.41,701.17,1247.64,700.22,1247.64,700.22z M1244.12,704.32
		c-6.34,1.27-24.11,1.27-24.11,1.27c-17.46-2.55-26.34-6.99-26.34-6.99c-1.58-0.96-0.62-2.23-0.62-2.23l-0.32-1.89
		c-0.31-2.23,1.6-1.89,1.6-1.89c6.34-0.96,11.74-7.92,11.74-7.92c1.6-3.8-1.91-3.16-1.91-3.16c-10.79-0.62-22.22-4.45-22.22-4.45h0
		c1.27-4.76,10.79-9.83,10.79-9.83c4.76-1.89,11.74-3.5,11.74-3.5c8.26,0.32,13.97,9.2,13.97,9.2l-3.18,2.53l1.27,0.96
		c2.87-2.87,6.03,0.32,6.03,0.32c2.85,1.57,9.83,4.12,9.83,4.12c-3.18,4.73-13.01,2.84-13.01,2.84c0.31,5.1-5.4,8.56-5.4,8.56
		c3.81,3.19,18.4,6.06,18.4,6.06c5.4-7.63,11.1-2.23,11.1-2.23c1.27,0.93,2.87,2.53,2.87,2.53
		C1243.18,700.2,1244.12,704.32,1244.12,704.32z M1173.7,691.35l0.64-3.8c1.58-1.92,3.18-4.12,3.81-5.72
		c0.39-0.59,0.71-1.22,0.95-1.89c0.64,0.64,2.22,1.27,3.81,1.89h0.3v-0.01c6.34,1.89,17.46,2.87,17.46,2.87
		c-0.96,0.93-1.91,1.89-2.85,2.53c-3.49,2.87-6.34,3.5-6.34,3.5c-1.91,3.16-0.95,8.9-0.95,8.9c0.95,1.27,3.8,2.2,6.34,3.16
		c3.18,1.27,6.34,2.23,6.34,2.23c-3.87,0.79-7.86,0.79-11.74,0c-3.5-0.32-5.71-1.3-5.71-1.3l1.58-3.16
		C1186.07,692.29,1173.7,691.35,1173.7,691.35z M1257.77,690.37c-0.95-0.93-1.89-1.57-2.85-2.2c-2.53-1.27-4.44-0.64-4.44-0.64
		c-11.43-2.56-14.28,5.07-14.28,5.07c-4.14-0.64-4.45,2.87-4.45,2.87l-5.4-1.6l-1.27-0.64l-6.03-1.6l2.54-4.1
		c5.71-0.32,10.16-3.49,12.7-5.72l0,0c1.6-1.6,2.54-2.87,2.53-2.87c-12.06,0.32-15.88-9.2-15.88-9.2c3.48,2.06,7.21,3.66,11.1,4.76
		c19.68,5.69,30.15-6.03,30.15-6.03l4.12,2.53h-2.22v3.5c-3.81-0.64-7.61,0.93-7.61,0.93c0.1,2.29,0.88,4.5,2.22,6.36
		c0.95,1.89,2.22,3.16,2.22,3.16c-3.16-0.62-4.44,1.27-4.44,1.27L1257.77,690.37z M1250.8,694.52c-2.54,0-3.18,2.23-3.18,2.23
		c-2.22-4.47-9.19-4.14-9.2-4.14c4.12-5.69,9.83-1.89,9.83-1.89C1249.53,691.65,1250.8,694.52,1250.8,694.52z M1248.26,698.33
		c0,0,0.64-2.56,3.49-2.85c0,0,2.54,2.53,1.91,7.29l-2.22,0.3C1251.44,703.06,1251.12,699.6,1248.26,698.33z M1252.71,693.87
		c0,0,0.32-3.16-1.27-4.12v0c0,0,6.98-0.64,8.25,8.25c0,0-2.53-0.32-4.12,0.64C1255.56,698.63,1254.93,695.46,1252.71,693.87z
		 M1256.2,699.9c0,0,1.27-1.27,3.16-0.93c0,0,0.95,1.27,0.64,3.16l-3.49,0.3L1256.2,699.9L1256.2,699.9z M1280.95,675.44v1.3
		c-3.18-2.57-9.21-3.5-9.21-3.5v-0.96l2.23-0.93l2.85-0.96c1.27,1.89,5.08,3.49,8.88,4.76c6.03,2.23,12.7,3.5,12.7,3.5
		c-3.02,0.52-3.9,2.54-3.88,4.57c-1.14-1.37-3.16-1.54-5.58-1.27C1286.72,676.54,1280.95,675.45,1280.95,675.44z M1150.2,709.76
		c0,0,5.71-6.06,8.57,2.84c0,0,0,3.19-2.22,0.96C1156.55,713.56,1155.28,708.8,1150.2,709.76z M1157.19,725.62
		c-0.64-2.23-2.87-3.5-2.87-3.5c1.6-0.93,1.6-3.16,1.6-3.16C1159.42,720.52,1157.19,725.62,1157.19,725.62z M1159.07,720.22
		c-0.31-2.53-1.89-2.53-1.89-2.53v-1.91c1.58,0.64,2.22-0.64,2.22-0.64C1160.66,717.99,1159.07,720.22,1159.07,720.22z
		 M1160.99,711.96c-3.18-11.72-11.43-3.8-11.43-3.8c-2.22-7.29,0.96-13.02,0.96-13.02c4.76,0.64,11.1,0,11.1,0
		c1.58,0,0.95,0.96,0.95,0.96c1.27,5.69-2.22,5.69-2.22,5.69c2.54,2.23,3.18,1.27,3.18,1.27c5.08,0.64,9.52-9.49,9.52-9.49
		c4.76-0.32,10.48,3.8,10.48,3.8c3.18,2.87,0,3.8,0,3.8c-4.45-0.93-12.39,0.64-12.39,0.64c-0.95,0.64-0.64,2.56-0.64,2.56
		c0.64,1.89,0.96,8.24,0.96,8.24C1167.34,711.65,1160.99,711.96,1160.99,711.96z M1266.99,723.71c-46.02,6.33-82.82,3.16-82.82,3.16
		c-10.79-1.89-11.11-7.63-11.11-7.63c2.54-8.87-0.95-13.96-0.95-13.96c-1.28-0.93-0.32-1.6-0.32-1.6h0c8.88,5.4,41.58,5.4,41.58,5.4
		c31.41,0.32,48.56-4.1,48.56-4.1c3.8,0,10.16-2.87,10.16-2.87c1.27-0.32,0.62,2.23,0.62,2.23c-1.89,7.29-0.31,14.59-0.31,14.59
		C1272.39,724.02,1266.99,723.71,1266.99,723.71z M1283.47,717.06c0,0-0.3,0.3-0.62,1.89c0,0,0.32,0.31-0.64,3.5
		c0,0,1.26,1.26-4.12,4.1c0.83-1.49,1.47-3.08,1.91-4.73c0,0-1.27,3.16-9.84,3.8c0,0,4.44-1.6,4.76-5.1l5.4-6.03h2.22l0,0
		C1282.53,714.49,1284.14,714.49,1283.47,717.06z M1283.8,713.22c-0.64-2.2-3.49-2.2-3.49-2.2c-4.12-1.27-4.45-5.4-4.45-5.4
		c-0.31-2.23,1.27-3.19,1.27-3.19c1.6-0.93,0-2.53,0-2.53l0,0c-2.22-4.12-0.64-6.96-0.64-6.96c1.91-5.72,7.3-5.1,7.3-5.1
		c3.16,1.89,2.87-0.64,2.87-0.64c3.16-4.44,6.96-1.89,6.96-1.89c1.04,1.29,2.5,2.19,4.12,2.53c2.23,2.87,0.96,4.44,0.96,4.44
		c-0.17,1,0.06,2.03,0.64,2.87c2.87,0.64,2.53,3.83,2.53,3.83c0.64,3.48-1.6,9.2-1.6,9.2c-1.89,1.6-4.1,0.3-4.1,0.3
		c-1.6,0.32-0.96,0.96-0.96,0.96c1.6,2.53,0,3.8,0,3.8c-2.53,2.87-6.03,2.56-6.03,2.56C1284.12,715.77,1283.8,713.22,1283.8,713.22z
		 M1291.44,727.5c-1.27-2.87-0.64-4.12-0.64-4.12c0.64-1.57-0.64-3.5-0.64-3.5c-1.92,2.56-0.66,6.99-0.66,6.99
		c-3.8-1.6-4.73-5.4-4.73-5.4c0-2.52,1.57-4.42,1.57-4.42h0c3.5,0.64,5.4,0.3,5.4,0.3C1296.2,721.47,1291.44,727.5,1291.44,727.5z
		 M1312.05,715.14c-2.23,0-3.16-0.96-3.16-0.96c3.8,4.44,0,13.02,0,13.02c-3.83-1.6-4.46-6.03-4.46-6.03
		c0.64,3.16-0.64,4.1-0.64,4.1c-3.16-0.64-4.44-4.76-4.44-4.76c-0.32,3.83-2.23,2.23-2.23,2.23c-0.93-0.64-0.93-2.87-0.93-2.87
		c-1.58-0.29-2.56-2.83-2.56-2.83v0c4.76-1.27,4.76-5.72,4.76-5.72c0.38-0.12,0.75-0.29,1.09-0.51c3.48,2.18,4.31,4.97,4.31,4.97
		c1.27,0.64,3.19,3.8,3.19,3.8c-0.32-4.12-2.23-5.1-2.23-5.1c-0.71-2-1.87-3.81-3.4-5.29c2.44-3.03,2.44-7.7,2.44-7.7
		c3.5-1.27,6.67,3.16,6.67,3.16c-1.27,0.64-2.53,0.32-2.53,0.32C1313.02,707.19,1312.05,715.14,1312.05,715.14z M1313.31,704.67
		c-2.23-3.5-0.3-4.44-0.3-4.44l4.44-6.36c0.98,0.61,1.75,1.48,2.23,2.53l-3.19,4.12c-0.93,2.23,0.64,2.87,0.64,2.87l2.56,3.16
		c-0.64,2.53-2.87,2.23-2.87,2.23L1313.31,704.67z M1332.37,718.33c0,0-0.64-2.54-1.27-3.5c0,0-2.55-4.12-1.6,1.6
		c0,0-0.96,1.57,0.64,5.69c0,0,1.6,3.16-1.27,6.36c0,0-2.53,2.2-4.12-1.6c0,0,0-1.6-2.23-1.89c0,0-2.54,1.27-5.07-2.23
		c0,0-2.53-3.8,2.23-5.4c0,0,3.48-0.64,5.07-2.2c0,0,3.16-3.49-1.27-2.56c0,0-1.89,2.23-5.72,2.56c0,0-4.73-1.3-2.2-6.06
		c0,0,5.07,2.55,5.4-2.2c2.29,2.03,4.85,3.73,7.63,5.02c-1.65,4.88-4.46,10.53-4.46,10.53c2.48-2.74,4.58-7.98,5.37-10.13
		c1.23,0.53,2.52,0.95,3.83,1.25l0.34,5.41C1333.64,718.97,1333.3,720.53,1332.37,718.33z M1325.72,685.31c0,0,1.89-4.44,0.3-8.26
		c0,0,2.53-6.65-1.27-7.92c0,0,0.96-6.99-8.26-6.03V652.3l27.63-0.32l0.64,48.56C1344.74,700.54,1330.48,696.4,1325.72,685.31z
		 M1353.32,721.82l-8.59,7.6l-10.16-8.24l0.32-23.81l4.12,2.87v20.28l5.71,4.12l5.08-5.69v-18.42l3.5-0.3V721.82z M1346.01,700.86
		l-0.32-48.56h26.34v0h-0.01v14.28c0,0-6.65,18.39-7.29,22.85C1364.73,689.43,1360.61,698.33,1346.01,700.86z M1364.41,725.92
		c0,0-6.67-1.57-9.2-3.8v-3.5v0c0,0,5.41,4.46,9.2,4.46C1364.41,723.08,1366,725.28,1364.41,725.92z M1365.68,717.36L1365.68,717.36
		l1.6-5.69c5.4-0.32,3.5-6.36,3.5-6.36c4.44-1.27,9.49-9.52,9.49-9.52l1.3,3.19l1.89,3.8c0.93,1.89,1.57,2.87,1.27,2.87l-2.87,2.53
		v-1.6l-5.4,4.76l1.89-10.47l-5.07,11.72C1370.44,715.79,1365.68,717.36,1365.68,717.36z M1416.78,727.85c0,0-7.6-1.6-9.52-7.31
		l1.92,6.36c0,0-2.55-0.97-5.4-5.07c0,0-5.72-7.96-12.39-4.46c0,0,6.36,3.49,8.56,7.29c0,0-1.91,0.64-3.8-0.3
		c1.2,1.03,2.26,2.2,3.16,3.5c0,0-3.79,0-7.29-3.19c0,0-5.71-5.69-12.06-3.16c0,0,4.12,1.6,5.72,5.4c0,0-14.62,0-19.05-6.67
		l9.56-4.75l1.89-1.6l3.8-1.57c2.56,0.64,4.94,1.84,6.99,3.5l0.64-0.64c0,0-2.87-3.83-6.99-4.12l4.46-2.87c0,0,5.71,6.99,13.63,1.89
		c0,0,4.12-2.85,2.53-11.72l11.45-8.9v-0.96c0,0,4.1,0.32,4.1,3.8c0,0,3.49-1.27,4.12,3.19c0,0-7.94-2.23-12.06,1.57l0.64,7.32
		c0,0-5.07,0.64-6.03,6.33c0,0,0,3.8,6.99,4.76l0.3,6.36c0,0,1.92,3.16,4.12,3.16C1416.78,724.98,1417.74,726.89,1416.78,727.85z
		 M1520.89,723.71c0,0-0.34,1.57-10.49,2.84c0,0-60.92,8.26-96.48-5.37c0,0,1.28-10.49-0.61-18.42c0,0,14.59,7.63,52.36,6.65
		c0,0,46.63-1.27,54.89-6.03c0,0,1.27,11.43,3.5,14.29C1524.05,717.68,1524.69,723.39,1520.89,723.71z M1524.36,712.92l-2.84-10.79
		c-2.23-3.5-5.72-1.27-5.72-1.27c-2.87,2.2-6.36,0.93-6.36,0.93c-3.8-0.64-0.64-3.16-0.64-3.16c5.1-3.16,10.16-4.76,10.16-4.76
		c3.83,1.6,10.79,1.27,10.79,1.27c6.03-0.93,4.76,4.12,4.76,4.12c0.32,4.76-1.27,13.02-1.27,13.02
		C1529.45,712.29,1524.36,712.92,1524.36,712.92z M1529.12,724.01c3.16-2.53,5.4-8.86,5.4-8.86l1.6,1.57l-4.76,8.56L1529.12,724.01z
		 M1533.57,725.62l3.8-8.26c0,0,3.8,1.26,7.3-0.31l0.96,5.07C1545.63,722.12,1540.54,726.89,1533.57,725.62z M1556.42,696.74
		c0,0,5.4,1.26,3.8,5.69c0,0,0,2.22-5.4,0.32c0,0,2.87,7,1.6,12.7c0,0-3.19-1.27-4.76-1.6c0,0,1.89-8.86-7-12.06
		c0,0,0-2.53-0.3-3.16c0,0,0.31-1.6-0.32-4.12C1544.04,694.5,1547.2,693.87,1556.42,696.74z M1556.07,663.09c0,0,5.73,3.8-0.93,9.2
		c0,0,2.54-5.71-5.72-7.6c0,0-6.99,0.3-10.47-1.3c0,0-14.62-2.53-17.15-3.8c0,0,1.91,13.97,1.27,19.69c0,0,0,2.23-0.3,4.12
		c0,0,6.33,3.16,15.23,0.93l3.16,3.5v2.23c0,0,0.34,8.26,1.27,12.36c0,0,0.96,0.34,2.23,0.64c0,0,8.88,5.4,2.53,13.35
		c0,0,0.32-4.77-3.8-6.67c0,0-0.64-0.32,0,0.64c0,0,1.6,1.91,0.96,3.8c0,0-0.34,1.27-1.3,1.6c0,0-6.33,1.57-7.6-1.6
		c0,0,1.89-4.44,1.89-8.56c0,0,0.64-10.16-3.16-12.39c0,0-0.64-0.96-4.46-0.96c0,0-11.1,1.6-21.89-7.92c0,0-4.76-3.16-5.72-11.09
		c0,0,1.92-8.9-8.24-12.06l-1.3-2.56c0,0,0.96-0.93,1.6-2.53c0,0,0.62-1.26,0.32-2.53c-0.32-1.27-1.6-2.53-4.12-3.16l-1.6-2.23
		c0,0,17.78,2.53,27.3,5.4c1.27,0.34,2.84,0.97,3.8,1.27c0,0,6.67-0.3,10.47,1.6c0,0,13.02,4.76,22.22,2.53c0,0,4.12-1.6,6.36-5.4
		c1.61-3.16,1.91-7.63-1.89-13.32c0,0-1.27,2.53-3.83,3.16c0,0-4.44,1.6-10.47-2.2c0,0,3.16-2.87,7.63-2.23c0,0,1.57-0.34,0-0.64
		c0,0-8.59-1.91-14.92,5.07c0,0,2.84-10.79,12.06-9.52c0,0,1.89-0.3,0-1.57c0,0-4.12-2.22-19.35-0.32c0,0-20.01,2.85-36.83,1.89
		c0,0-18.08-3.16-20.28-13.32c0,0-3.83-10.47,8.87-20.95c0,0,13.02-9.21,27.94-5.08c0,0-0.34,2.54-6.67,4.45
		c0,0,2.87,0.95,4.44,0.31c0,0,9.86,0,13.66-2.87c0,0,6.33-5.07,11.72-6.03c0,0-3.46,2.87-4.1,5.08c0,0,0.31,3.5-8.59,6.99
		c0,0,13.36-0.64,17.46-4.45c0,0,6.67,0.65,11.43-2.85c0,0-2.54,7.94-10.47,11.74c0,0-16.19,4.76-31.41,0.64
		c-4.94-1.54-10.08-2.4-15.25-2.54c0,0-10.47-0.95-15.23,8.57c0,0-3.8,9.21,6.33,13.97c0,0,9.84,6.03,27.3,1.89
		c0,0,24.75-5.07,39.04-4.44c0,0-9.22-6.04-5.72-11.75c0,0,1.6,2.23,4.76,4.12c0,0,4.14,2.23,4.46,6.67c0,0,2.2,1.6,1.57,0.32
		c0,0-1.57-3.49-1.57-6.03c0,0,8.24,1.91,8.24,15.54c0,0,2.23,0.96,4.46,5.72c0,0,1.27,7.29-0.32,13.96l0,0
		C1562.45,657.7,1560.56,661.5,1556.07,663.09z"/>
	<path class="st1" d="M677.02,516.16c2.22,5.4,7.92,4.45,7.92,4.45c25.39-10.16,35.55-34.28,35.55-34.28
		c6.34-23.8-8.57-30.14-8.57-30.14c-13.33-7.94-23.16-1.6-23.16-1.6c-15.24,8.25-19.36,24.12-19.36,24.12
		C665.6,499.66,677.02,516.16,677.02,516.16L677.02,516.16z"/>
	<path class="st1" d="M2080.47,523.13c25.41-10.48,35.56-34.59,35.56-34.59c6.33-23.49-8.59-29.83-8.59-29.83
		c-13.32-8.25-23.15-1.6-23.15-1.6c-15.25,8.25-19.35,24.12-19.35,24.12c-3.83,20.95,7.6,37.46,7.6,37.46
		C2074.78,524.09,2080.47,523.13,2080.47,523.13z"/>
	<path class="st1" d="M1285.71,702.77c0,0-1.89-1.91-5.07-0.96c0,0-1.91,0-0.96,3.83c0,0,1.6,0.31,1.6,2.2c0,0,0.31,1.92,2.87,1.6
		C1284.14,709.43,1286.98,707.53,1285.71,702.77L1285.71,702.77z"/>
	<path class="st1" d="M1281.58,700.24c2.85,0,5.08-1.6,5.08-1.6c1.57-0.31,0.64-2.87,0.64-2.87v0c0-6.03-3.83-5.69-3.83-5.69
		c-1.89,0.3-1.89,2.2-1.89,2.2c0.64,3.19-0.64,3.19-0.64,3.19c-2.85,0.64-0.95,3.8-0.95,3.8
		C1280.95,700.55,1281.58,700.24,1281.58,700.24z"/>
	<path class="st1" d="M1291.11,711.33c0,0,1.26,0.96,2.53-1.27c0,0,0.32-5.06-4.44-5.69c0,0-4.14,0.93-2.85,7.6
		c0,0,2.23,1.91,2.23-0.93C1288.58,711.03,1289.52,709.76,1291.11,711.33z"/>
	<path class="st1" d="M1266.65,709.08l-7.29,0.66h-0.64v0.31h0.01l0,0l0.31,2.53c0.64-1.27,2.85-1.27,2.85-1.27l0.31,9.2l-0.64,0.66
		l3.8-0.66l-0.64-0.3l-0.31-9.2c1.89-0.64,2.85,0.3,2.85,0.3l-0.31-2.53L1266.65,709.08z"/>
	<path class="st1" d="M1291.74,700.86c0.64,3.16,5.1,5.69,5.1,5.69c2.2,0,1.27-3.16,1.27-3.16c-1.27-1.6-0.64-2.53-0.64-2.53
		c3.16-0.64,0.93-3.5,0.93-3.5C1292.37,695.78,1291.74,700.86,1291.74,700.86z"/>
	<path class="st1" d="M1295.24,694.21c0,0,2.23-3.5-1.27-3.5c0,0-1.6,0.3-2.53-1.6c0,0-3.83-3.49-3.83,1.61c0,0-0.31,2.23,3.19,6.33
		C1290.8,697.05,1293.34,696.74,1295.24,694.21z"/>
	<path class="st1" d="M1773.01,614.53l31.03-33.61V565.4h-77.56l-28.44,38.78V495.6l41.37,20.68l59.47-36.2l-54.29-31.03
		l-67.22,41.37l-49.12-31.03l-54.29,33.61l41.37,31.03v152.54l-20.68,10.34l67.22,36.2l51.71-31.03l-15.51-12.93v-64.64H1773.01z
		 M1692.86,679.16l-7.76-5.17V500.77l7.76-5.17V679.16z"/>
</g>
</svg>
