<?xml version="1.0" standalone="no"?>
<!DOCTYPE svg PUBLIC "-//W3C//DTD SVG 20010904//EN"
 "http://www.w3.org/TR/2001/REC-SVG-20010904/DTD/svg10.dtd">
<svg version="1.0" xmlns="http://www.w3.org/2000/svg"
 width="700.000000pt" height="700.000000pt" viewBox="0 0 700.000000 700.000000"
 preserveAspectRatio="xMidYMid meet">
<metadata>
Created by potrace 1.11, written by Peter Selinger 2001-2013
</metadata>
<g transform="translate(0.000000,700.000000) scale(0.100000,-0.100000)"
fill="#000000" stroke="none">
<path d="M0 3500 l0 -3500 3500 0 3500 0 0 3500 0 3500 -3500 0 -3500 0 0
-3500z m5215 2470 c281 -160 514 -295 518 -299 4 -4 -264 -173 -597 -375
l-604 -367 -421 211 c-232 115 -423 210 -426 210 -3 0 -5 -497 -5 -1105 0
-608 3 -1105 8 -1104 4 0 135 175 291 390 l284 389 794 0 793 0 0 -157 0 -158
-316 -342 -316 -343 -769 0 -769 0 0 -659 0 -658 160 -133 c88 -73 157 -136
153 -140 -21 -19 -1038 -623 -1049 -623 -6 0 -218 111 -470 248 -253 136 -547
295 -654 353 -107 58 -206 112 -219 120 -24 15 -20 17 182 119 l207 103 -2
1563 -3 1562 -410 308 c-225 170 -410 313 -410 318 0 6 246 163 547 350 l546
340 494 -312 c271 -171 498 -313 504 -316 6 -2 318 185 694 416 l683 420 36
-19 c20 -10 266 -149 546 -310z"/>
<path d="M3498 5296 l-78 -51 0 -1772 0 -1771 78 -50 77 -50 3 933 c1 514 1
1356 0 1873 l-3 939 -77 -51z"/>
</g>
</svg>
